<?xml version="1.0" encoding="UTF-8"?>
<svg id="Capa_1" data-name="Capa 1" xmlns="http://www.w3.org/2000/svg" viewBox="0 0 180 180">
  <defs>
    <style>
      .cls-1 {
        fill: #000feb;
      }
    </style>
  </defs>
  <path class="cls-1" d="M17.4,146.43c-6.87,0-12.02-5.16-11.59-21.25.21-15.24-.43-45.28-1.08-56.23-.43-10.95.43-30.91,1.08-34.77.64-4.51,3.86-9.01,8.37-9.01,5.36,0,7.29,4.51,10.08,8.16,2.57,3.43,4.72,9.01,3.65,15.88-.86,5.36-1.72,19.52,0,34.98,1.07,10.51,3.22,20.81,1.71,31.32-1.08,9.45-1.71,15.89-1.93,20.4-.43,5.57-4.29,10.52-10.3,10.52Z"/>
  <path class="cls-1" d="M84.6,136.34c-1.93,7.72-4.07,15.45-3.64,17.16.86,5.16-3.22,7.51-6.87,9.88-1.08.43-2.37,1.06-4.29,1.06-3.22,0-4.72-3-6.01-5.14-1.93-1.08-5.36-4.08-5.36-7.72,0-3.87,3.65-5.8,4.29-9.44.86-4.29,8.15-32.63,11.59-45.07,1.71-6.22,6.22-18.88,10.3-30.9,4.29-12.23,7.72-22.54,7.72-24.68.43-7.73,0-20.6,11.37-20.6s19.32,16.31,23.83,25.32c5.14,9.87,14.8,31.76,16.3,34.55.86,1.71,2.15,3.65,8.8,3.86,4.51.21,22.75-1.93,22.75,5.58,0,5.36-3,10.52-11.37,9.23-4.29-.86-11.81-2.79-11.81-.64,0,2.36,5.8,18.45,7.09,21.68,4.07,11.79-3,10.29-6.45,16.74l-.64,1.06c-.86,1.71-2.37,3-4.51,3-5.58,0-4.51-7.07-7.72-8.15-3.22-.86-7.94-1.08-7.94-5.58,0-4.07,4.72-6.86,3.86-10.08-1.5-4.73-3.64-11.16-4.51-13.31-.43-.86-.85-.64-2.79-.22-4.49,1.5-12.44,4.73-19.09,6.87-6.43,1.93-12.66,5.16-19.53,4.51,0,3.22-4.93,19.53-5.36,21.03ZM108.86,53.5c-.44,4.51-8.8,31.98-11.81,38.84-.65,1.29.64.86,1.29.64,3.22-1.29,20.17-5.79,26.18-6.65-5.16-10.73-10.09-21.46-14.6-32.61-.64-1.29-1.06-.64-1.06-.22Z"/>
</svg>