<?xml version="1.0" encoding="UTF-8"?>
<svg id="Capa_1" data-name="Capa 1" xmlns="http://www.w3.org/2000/svg" viewBox="0 0 48 48">
  <defs>
    <style>
      .cls-1 {
        fill: #000feb;
      }
    </style>
  </defs>
  <path class="cls-1" d="M6.24,37.15c-1.68,0-2.94-1.26-2.83-5.2.05-3.73-.11-11.08-.26-13.75-.1-2.68.11-7.56.26-8.5.16-1.1.94-2.2,2.05-2.2,1.31,0,1.78,1.1,2.47,2,.63.84,1.15,2.2.89,3.88-.21,1.31-.42,4.78,0,8.56.26,2.57.79,5.09.42,7.66-.26,2.31-.42,3.89-.47,4.99-.1,1.36-1.05,2.57-2.52,2.57Z"/>
  <path class="cls-1" d="M22.68,34.68c-.47,1.89-1,3.78-.89,4.2.21,1.26-.79,1.84-1.68,2.42-.26.1-.58.26-1.05.26-.79,0-1.15-.73-1.47-1.26-.47-.26-1.31-1-1.31-1.89,0-.95.89-1.42,1.05-2.31.21-1.05,1.99-7.98,2.83-11.02.42-1.52,1.52-4.62,2.52-7.56,1.05-2.99,1.89-5.51,1.89-6.04.11-1.89,0-5.04,2.78-5.04s4.72,3.99,5.83,6.19c1.26,2.41,3.62,7.77,3.99,8.45.21.42.53.89,2.15.94,1.1.05,5.56-.47,5.56,1.36,0,1.31-.73,2.57-2.78,2.26-1.05-.21-2.89-.68-2.89-.16,0,.58,1.42,4.51,1.73,5.3.99,2.88-.73,2.52-1.58,4.09l-.16.26c-.21.42-.58.73-1.1.73-1.37,0-1.1-1.73-1.89-1.99-.79-.21-1.94-.26-1.94-1.37,0-.99,1.15-1.68.94-2.46-.37-1.16-.89-2.73-1.1-3.26-.1-.21-.21-.16-.68-.05-1.1.37-3.04,1.16-4.67,1.68-1.57.47-3.1,1.26-4.78,1.1,0,.79-1.21,4.78-1.31,5.14ZM28.61,14.42c-.11,1.1-2.15,7.82-2.89,9.5-.16.32.16.21.32.16.79-.32,4.93-1.42,6.4-1.63-1.26-2.62-2.47-5.25-3.57-7.98-.16-.32-.26-.16-.26-.05Z"/>
</svg>